<svg width="350" height="150" viewBox="0 0 350 150" fill="none" xmlns="http://www.w3.org/2000/svg">
<g clip-path="url(#clip0_509_2)">
<mask id="mask0_509_2" style="mask-type:luminance" maskUnits="userSpaceOnUse" x="0" y="0" width="350" height="150">
<path d="M340 0H10C4.47715 0 0 4.47715 0 10V140C0 145.523 4.47715 150 10 150H340C345.523 150 350 145.523 350 140V10C350 4.47715 345.523 0 340 0Z" fill="white"/>
</mask>
<g mask="url(#mask0_509_2)">
<path d="M340 0H10C4.47715 0 0 4.47715 0 10V140C0 145.523 4.47715 150 10 150H340C345.523 150 350 145.523 350 140V10C350 4.47715 345.523 0 340 0Z" fill="#221C3D"/>
<path d="M194.28 72.0352C186.83 86.4352 188.016 104.426 195.523 118.782C203.03 133.139 216.273 143.992 231.067 150.602C245.861 157.211 262.171 159.837 278.357 160.518C287.957 160.917 297.605 160.653 307.085 159.112C317.937 157.341 328.781 153.75 337.243 146.728C343.142 141.832 347.649 135.477 351.605 128.915C360.446 114.242 366.835 98.2432 373.205 82.3264C376.334 74.4832 379.483 66.5872 381.259 58.3264C384.619 42.6208 382.776 25.6864 375.23 11.5024C367.685 -2.68158 354.288 -13.8512 338.76 -17.9024C328.473 -20.5808 317.539 -20.168 307.181 -17.7728C300.136 -16.1451 293.327 -13.6255 286.92 -10.2752C271.305 -2.11518 259.008 10.9312 245.592 21.9856C239.697 26.848 235.123 33.2848 229.118 38.2048C223.041 43.192 216.605 47.7328 210.619 52.8304C204.173 58.3072 198.173 64.48 194.28 72.0352Z" fill="#8162FF"/>
<path opacity="0.5" d="M194.28 72.0352C186.83 86.4352 188.016 104.426 195.523 118.782C203.03 133.139 216.273 143.992 231.067 150.602C245.861 157.211 262.171 159.837 278.357 160.518C287.957 160.917 297.605 160.653 307.085 159.112C317.937 157.341 328.781 153.75 337.243 146.728C343.142 141.832 347.649 135.477 351.605 128.915C360.446 114.242 366.835 98.2432 373.205 82.3264C376.334 74.4832 379.483 66.5872 381.259 58.3264C384.619 42.6208 382.776 25.6864 375.23 11.5024C367.685 -2.68158 354.288 -13.8512 338.76 -17.9024C328.473 -20.5808 317.539 -20.168 307.181 -17.7728C300.136 -16.1451 293.327 -13.6255 286.92 -10.2752C271.305 -2.11518 259.008 10.9312 245.592 21.9856C239.697 26.848 235.123 33.2848 229.118 38.2048C223.041 43.192 216.605 47.7328 210.619 52.8304C204.173 58.3072 198.173 64.48 194.28 72.0352Z" fill="white"/>
<path d="M334.32 43.5134H381.461" stroke="#141518" stroke-width="0.48" stroke-linecap="round" stroke-linejoin="round"/>
<path d="M295.584 -22.9233V15.2751" stroke="#141518" stroke-width="0.48" stroke-linecap="round" stroke-linejoin="round"/>
<path d="M228.37 43.5134H200.054" stroke="#141518" stroke-width="0.48" stroke-linecap="round" stroke-linejoin="round"/>
<path d="M335.822 23.5551L353.913 5.46387" stroke="#141518" stroke-width="0.48" stroke-linecap="round" stroke-linejoin="round"/>
<path d="M346.517 5.91519L355.56 -3.13281" stroke="#141518" stroke-width="0.48" stroke-linecap="round" stroke-linejoin="round"/>
<path d="M187.166 106.187L205.257 88.0911" stroke="#141518" stroke-width="0.48" stroke-linecap="round" stroke-linejoin="round"/>
<path d="M197.856 88.5424L206.904 79.4944" stroke="#141518" stroke-width="0.48" stroke-linecap="round" stroke-linejoin="round"/>
<path d="M337.469 14.9582L343.229 9.19824" stroke="#141518" stroke-width="0.48" stroke-linecap="round" stroke-linejoin="round"/>
<path d="M311.021 -3.14233L312.168 0.563259C312.234 0.800596 312.35 1.02109 312.508 1.20987C312.666 1.39866 312.863 1.55135 313.085 1.65767L316.2 3.04006L313.104 4.40806C312.882 4.51489 312.686 4.66775 312.528 4.85646C312.37 5.04516 312.254 5.26539 312.187 5.50246L311.04 9.20806L309.893 5.50246C309.827 5.2657 309.712 5.04563 309.555 4.85691C309.398 4.66819 309.202 4.51518 308.981 4.40806L305.861 3.04006L308.962 1.66726C309.183 1.56093 309.379 1.40816 309.537 1.21933C309.694 1.0305 309.809 0.810017 309.874 0.572861L311.021 -3.14233Z" fill="white"/>
<path d="M325.718 13.0144L326.827 16.4944C326.893 16.7187 327.005 16.9265 327.158 17.1037C327.31 17.2808 327.498 17.4233 327.71 17.5216L330.71 18.808L327.72 20.0992C327.508 20.1969 327.319 20.3393 327.166 20.5165C327.014 20.6938 326.902 20.9018 326.837 21.1264L325.728 24.6064L324.619 21.1264C324.554 20.9015 324.44 20.6933 324.287 20.5161C324.134 20.3388 323.944 20.1966 323.731 20.0992L320.736 18.808L323.731 17.5216C323.944 17.4234 324.133 17.2809 324.286 17.1038C324.439 16.9267 324.553 16.7189 324.619 16.4944L325.718 13.0144Z" fill="white"/>
<path opacity="0.7" d="M332.477 -1.80786L332.842 -0.660663C332.864 -0.586502 332.901 -0.517839 332.952 -0.459126C333.002 -0.400413 333.064 -0.352964 333.134 -0.319863L334.123 0.102536L333.134 0.529736C333.064 0.562836 333.002 0.610285 332.952 0.668998C332.901 0.727711 332.864 0.796379 332.842 0.870539L332.477 2.01774L332.112 0.870539C332.091 0.795975 332.053 0.726909 332.003 0.668083C331.952 0.609256 331.89 0.562059 331.819 0.529736L330.83 0.102536L331.819 -0.319863C331.89 -0.352187 331.952 -0.39938 332.003 -0.458206C332.053 -0.517033 332.091 -0.586099 332.112 -0.660663L332.477 -1.80786Z" fill="white"/>
<path d="M337.469 89.9775L338.578 93.4575C338.643 93.6825 338.756 93.8906 338.91 94.0679C339.063 94.2451 339.253 94.3873 339.466 94.4847L342.461 95.7759L339.466 97.0623C339.253 97.1606 339.064 97.303 338.911 97.4801C338.758 97.6573 338.644 97.865 338.578 98.0895L337.469 101.57L336.36 98.0799C336.294 97.856 336.181 97.6487 336.029 97.4716C335.876 97.2945 335.688 97.1518 335.477 97.0527L332.477 95.7663L335.477 94.4751C335.689 94.3766 335.877 94.234 336.029 94.0569C336.182 93.8798 336.294 93.6721 336.36 93.4479L337.469 89.9775Z" fill="white"/>
<path d="M283.08 2.01758L283.915 4.92638C283.961 5.10807 284.043 5.27829 284.158 5.42622C284.273 5.57415 284.417 5.69653 284.582 5.78558L286.833 6.86558L284.582 7.94078C284.417 8.02982 284.273 8.1522 284.158 8.30013C284.043 8.44806 283.961 8.61829 283.915 8.79998L283.08 11.7088L282.249 8.79998C282.204 8.61829 282.121 8.44806 282.006 8.30013C281.891 8.1522 281.747 8.02982 281.582 7.94078L279.331 6.87998L281.582 5.79998C281.747 5.71093 281.891 5.58855 282.006 5.44062C282.121 5.29269 282.204 5.12247 282.249 4.94078L283.08 2.01758Z" fill="white"/>
<path d="M251.635 100.48C251.635 100.48 243.345 90.3086 242.76 86.939L236.366 90.299L213.062 90.1166C211.889 88.1306 210.817 86.0864 209.851 83.9918C208.929 81.7598 208.55 77.8814 213.777 76.8302C213.777 76.8302 216.854 71.3294 217.963 66.923C219.072 62.5166 217.368 57.6062 219.005 54.3374C220.641 51.0686 221.328 50.1998 224.078 48.5774C226.829 46.955 232.824 42.8174 235.536 41.1086C238.346 39.3164 241.389 37.9193 244.579 36.9566C247.555 36.1262 270.61 23.5166 270.61 23.5166L271.646 25.2302L271.469 23.5166L274.785 25.7726C274.785 25.7726 277.248 26.1998 281.904 24.5486C286.56 22.8974 295.915 17.5598 302.179 20.411C308.443 23.2622 317.841 33.203 320.693 36.1598C323.544 39.1166 329.582 45.1886 331.08 49.667C332.578 54.1454 335.726 56.8238 337.32 58.5902C338.913 60.3566 346.521 66.3806 341.371 74.0654C336.221 81.7502 316.987 75.8318 316.987 75.8318C316.987 75.8318 317.861 71.2862 319.694 68.3294C318.777 66.3194 317.612 64.4314 316.229 62.7086C313.91 59.8286 305.899 50.7662 301.301 48.6062C296.702 46.4462 278.419 89.1326 278.419 89.1326L274.694 87.7646L274.061 93.5247C274.061 93.5247 255.01 98.1086 251.635 100.48Z" fill="#8162FF"/>
<path opacity="0.2" d="M297.062 31.1294C302.683 30.4478 308.347 33.0494 312.422 36.9614C316.497 40.8734 319.176 46.0478 321.297 51.299C322.81 55.0517 324.074 58.9 325.08 62.819C328.781 61.787 333.216 61.499 336.936 62.4398C334.373 63.155 331.752 63.3422 328.819 64.5038C331.656 64.5278 334.541 64.9406 337.075 66.2174C339.609 67.4942 341.75 69.731 342.441 72.4814C342.504 72.7454 342.413 73.1582 342.153 73.0766L338.477 78.2462L316.992 77.387C316.992 77.387 316.349 73.547 319.699 68.3918C318.094 65.0846 315.998 62.039 313.483 59.3582C309.115 54.5822 302.174 49.4606 302.174 49.4606L297.062 31.1294Z" fill="black"/>
<path opacity="0.2" d="M211.118 86.9393C211.118 86.9393 207.278 79.6481 216.576 77.3873C216.576 77.3873 219.283 75.1745 220.128 72.1073C220.973 69.0401 221.088 52.1825 233.568 49.9505C246.048 47.7185 252.034 45.0593 255.077 36.7505C258.12 28.4417 275.933 35.2001 275.933 35.2001L283.757 75.5585L274.061 93.5489L251.635 100.48C251.635 100.48 242.995 89.3969 240.777 82.3553C238.56 75.3137 222.331 87.4673 222.331 87.4673L214.209 90.9473L211.118 86.9393Z" fill="black"/>
<path d="M310.286 91.3598L304.459 91.0959L302.76 87.1262L301.968 87.9279L300.619 82.4126C300.619 82.4126 308.39 80.387 314.006 76.3646C320.702 72.5246 332.573 67.139 340.781 71.9246C340.781 71.9246 340.555 75.2559 340.301 77.3295C340.046 79.4031 339.365 82.6094 333.408 85.8062L312.931 90.275" fill="white"/>
<path d="M260.616 9.99506L252.864 3.80786L244.123 11.6319L233.563 17.6367L236.218 29.7423C236.218 29.7423 242.006 36.8847 244.579 39.7071C247.152 42.5295 246.806 42.7119 250.018 44.0271C253.229 45.3423 260.837 45.8559 260.837 45.8559C262.18 45.4017 263.468 44.7979 264.677 44.0559C266.674 42.8319 267.24 38.9103 267.24 38.9103L270.24 36.2223L270.653 31.3983C271.481 29.2477 271.791 26.9326 271.56 24.6399L267.168 18.7119C267.168 18.7119 268.608 18.8223 269.045 17.6319C269.482 16.4415 269.774 13.5039 269.774 13.5039C269.774 13.5039 269.822 12.0639 267.701 9.14546C265.579 6.22706 265.397 5.19026 262.666 5.90546C259.934 6.62066 260.616 9.99506 260.616 9.99506Z" fill="white"/>
<path d="M274.061 84.904C273.494 83.7856 267.557 76.024 265.421 74.2288C265.421 74.2288 253.762 69.3521 251.189 70.0577L243.658 72.3424C243.658 72.3424 234.758 74.9681 232.618 76.0865C230.477 77.2049 226.915 78.0737 222.888 79.0193C218.861 79.9649 214.032 80.5793 213.322 83.9297C212.611 87.2801 212.131 92.6561 213.173 96.0977C213.173 96.0977 213.13 99.5296 213.72 100.461C214.31 101.392 219 101.848 223.214 99.7648C227.429 97.6816 232.718 94.2928 236.362 90.3232L246.067 85.8785L252.23 90.928L255.739 91.6384L258.859 89.5361L261 90.928H262.853L263.362 88.288L258.859 82.5904L268.133 88.288L269.99 86.9392L269.39 83.4832L272.75 86.9392C272.75 86.9392 274.627 86.0272 274.061 84.904ZM262.747 78.5008L265.19 79.1968L267.643 82.2256L262.747 78.5008Z" fill="white"/>
<path d="M257.669 28.4318C258.269 29.1998 258.446 30.0734 258.058 30.3518C257.669 30.6302 256.872 30.275 256.267 29.5022C255.663 28.7294 255.49 27.8606 255.879 27.5822C256.267 27.3038 257.064 27.659 257.669 28.4318Z" fill="#141518"/>
<path d="M247.603 34.1247C248.203 34.8975 248.381 35.7663 247.992 36.0687C247.603 36.3711 246.806 35.9871 246.202 35.2143C245.597 34.4415 245.424 33.5727 245.813 33.2703C246.202 32.9679 246.998 33.3519 247.603 34.1247Z" fill="#141518"/>
<path d="M260.616 37.9791C260.616 37.9791 263.016 36.3855 262.056 32.4111" stroke="#141518" stroke-width="0.48" stroke-linecap="round" stroke-linejoin="round"/>
<path d="M252.504 26.123C252.997 25.1905 253.737 24.4113 254.642 23.8704C255.548 23.3295 256.585 23.0478 257.64 23.0558" stroke="#141518" stroke-width="0.96" stroke-linecap="round" stroke-linejoin="round"/>
<path d="M246.394 30.3184C245.538 30.6449 244.766 31.1595 244.135 31.8241C243.505 32.4887 243.032 33.2864 242.75 34.1584" stroke="#141518" stroke-width="0.96" stroke-linecap="round" stroke-linejoin="round"/>
<path d="M248.52 31.8831C250.811 33.4365 252.56 35.6668 253.522 38.2623C254.645 38.6175 255.82 38.7798 256.997 38.7423L257.256 35.7423" stroke="#141518" stroke-width="0.48" stroke-linecap="round" stroke-linejoin="round"/>
<path d="M231.446 18.8079C231.446 18.8079 231.446 23.6079 233.904 26.7471C236.179 29.6751 240.873 35.0415 241.555 35.8239C241.61 35.8845 241.662 35.9486 241.709 36.0159C242.256 36.7695 245.813 41.5983 247.824 43.1055C249.624 44.4543 257.697 45.5055 260.491 45.8175C261.106 45.8877 261.727 45.7581 262.262 45.4479L264.662 44.0367C265.239 43.7006 265.679 43.1721 265.905 42.5439L268.401 35.6799C268.515 35.3725 268.574 35.0475 268.574 34.7199V30.5487C268.575 30.2024 268.511 29.859 268.387 29.5359L265.387 21.6543" stroke="#141518" stroke-width="0.48" stroke-linecap="round" stroke-linejoin="round"/>
<path d="M267.24 18.8079C267.24 18.8079 268.157 20.9583 271.56 24.6495" stroke="#141518" stroke-width="0.48" stroke-linecap="round" stroke-linejoin="round"/>
<path d="M301.733 82.1344C301.733 82.1344 308.193 79.888 312.739 77.08C317.285 74.272 332.126 67.0576 341.059 71.7328L340.901 72.5824C340.634 74.087 340.519 75.6148 340.56 77.1424C340.613 79.8736 339.379 82.2256 333.662 85.6192C326.52 86.512 310.579 91.192 310.579 91.192" stroke="#141518" stroke-width="0.48" stroke-linecap="round" stroke-linejoin="round"/>
<path d="M246.23 86.2288C244.085 86.6224 240.854 89.2192 239.803 91.1344C238.752 93.0496 238.133 95.176 237.077 97.0864C235.804 99.3723 233.943 101.276 231.686 102.602C228.749 104.32 225.178 105.035 222.725 107.402C221.48 108.658 220.541 110.184 219.979 111.861C218.528 115.869 218.653 120.279 220.328 124.199C222.003 128.12 225.104 131.258 229.003 132.981" stroke="#141518" stroke-width="0.96" stroke-linecap="round" stroke-linejoin="round"/>
<path d="M247.589 71.3679C247.589 71.3679 235.934 73.9839 231.446 76.7151C226.958 79.4463 214.809 78.4911 213.168 84.3567C211.526 90.2223 213.168 96.0975 213.168 96.0975C213.168 96.0975 212.76 99.5199 213.715 100.48C214.67 101.44 224.501 102.942 235.829 90.6591C235.829 90.6591 242.52 86.5935 245.933 86.3055" stroke="#141518" stroke-width="0.48" stroke-linecap="round" stroke-linejoin="round"/>
<path d="M245.933 72.7503C245.933 72.7503 249.057 69.3471 252.465 70.1967C255.873 71.0463 263.822 73.0767 265.425 74.2287C267.029 75.3807 273.859 83.5407 274.065 84.9039C274.272 86.2671 272.765 86.9391 272.765 86.9391L265.19 79.1967L260.621 77.7567" stroke="#141518" stroke-width="0.48" stroke-linecap="round" stroke-linejoin="round"/>
<path d="M262.114 78.2224L269.386 83.5024L269.986 86.9536L268.128 88.3024C268.128 88.3024 260.582 83.272 257.741 82.0624" stroke="#141518" stroke-width="0.48" stroke-linecap="round" stroke-linejoin="round"/>
<path d="M258.125 82.2256L263.357 88.288L262.848 90.928H260.995L252.226 85.2256" stroke="#141518" stroke-width="0.48" stroke-linecap="round" stroke-linejoin="round"/>
<path d="M239.4 83.2527C239.942 84.7983 242.712 85.0191 244.939 85.4271C247.166 85.8351 252.235 90.9279 252.235 90.9279L255.749 91.6383L258.864 89.5359" stroke="#141518" stroke-width="0.48" stroke-linecap="round" stroke-linejoin="round"/>
<path d="M244.57 72.1023C244.57 72.1023 242.045 60.8943 236.986 54.6975" stroke="#141518" stroke-width="0.48" stroke-linecap="round" stroke-linejoin="round"/>
<path d="M245.933 71.4831C245.933 71.4831 248.496 65.8335 244.57 57.8127" stroke="#141518" stroke-width="0.48" stroke-linecap="round" stroke-linejoin="round"/>
<path d="M242.76 37.408C237.518 38.752 230.76 45.1744 223.08 49.1488C217.401 52.0816 218.577 59.2528 218.28 64.648C217.982 70.0432 213.773 76.8544 213.773 76.8544C213.773 76.8544 209.971 77.6992 209.409 80.752C208.848 83.8048 212.457 89.2432 212.457 89.2432" stroke="#141518" stroke-width="0.48" stroke-linecap="round" stroke-linejoin="round"/>
<path d="M242.76 87.448C242.76 87.448 247.728 97.7296 251.645 100.053" stroke="#141518" stroke-width="0.48" stroke-linecap="round" stroke-linejoin="round"/>
<path d="M230.016 77.3871C230.016 77.3871 224.222 74.7519 218.976 75.8031" stroke="#141518" stroke-width="0.48" stroke-linecap="round" stroke-linejoin="round"/>
<path d="M231.446 76.7151C229.891 74.9487 224.52 73.5999 224.52 73.5999" stroke="#141518" stroke-width="0.48" stroke-linecap="round" stroke-linejoin="round"/>
<path d="M315.845 31.7439C315.845 31.7439 328.325 42.1215 331.685 51.1935C334.32 58.3263 348.85 64.9935 340.829 74.7999" stroke="#141518" stroke-width="0.48" stroke-linecap="round" stroke-linejoin="round"/>
<path d="M316.987 74.8C317.282 72.7793 317.995 70.8421 319.08 69.112C320.952 65.9296 330.561 65.272 335.837 66.9472" stroke="#141518" stroke-width="0.48" stroke-linecap="round" stroke-linejoin="round"/>
<path d="M266.453 50.3152C266.453 50.581 266.374 50.8409 266.226 51.0619C266.079 51.2829 265.869 51.4552 265.623 51.5569C265.378 51.6586 265.107 51.6852 264.847 51.6334C264.586 51.5815 264.347 51.4535 264.159 51.2655C263.971 51.0776 263.843 50.8381 263.791 50.5774C263.739 50.3167 263.765 50.0464 263.867 49.8009C263.969 49.5553 264.141 49.3454 264.362 49.1977C264.583 49.05 264.843 48.9712 265.109 48.9712C265.465 48.9712 265.807 49.1128 266.059 49.3648C266.311 49.6169 266.453 49.9587 266.453 50.3152Z" fill="#141518"/>
<path d="M267.797 58.5999C267.797 58.8657 267.718 59.1255 267.57 59.3466C267.423 59.5676 267.213 59.7398 266.967 59.8416C266.722 59.9433 266.451 59.9699 266.191 59.918C265.93 59.8662 265.69 59.7382 265.503 59.5502C265.315 59.3623 265.187 59.1228 265.135 58.8621C265.083 58.6014 265.109 58.3311 265.211 58.0855C265.313 57.8399 265.485 57.63 265.706 57.4824C265.927 57.3347 266.187 57.2559 266.453 57.2559C266.809 57.2559 267.151 57.3975 267.403 57.6495C267.655 57.9016 267.797 58.2434 267.797 58.5999Z" fill="#141518"/>
<path d="M261.067 14.8384L260.827 8.99195C260.804 8.49448 260.928 8.0012 261.184 7.57415C261.44 7.14711 261.817 6.80538 262.267 6.59195L263.227 6.14555C263.787 5.88266 264.425 5.83522 265.018 6.01227C265.611 6.18932 266.118 6.57849 266.443 7.10555L269.405 11.9343C269.69 12.4035 269.816 12.9524 269.765 13.4991L269.472 16.4415C269.413 17.0305 269.149 17.58 268.726 17.9941C268.303 18.4082 267.748 18.6606 267.158 18.7071L266.069 18.7936" stroke="#141518" stroke-width="0.48" stroke-linecap="round" stroke-linejoin="round"/>
<path d="M270.653 30.3184C272.165 27.8128 271.459 23.5552 271.459 23.5552L275.232 26.1232C275.232 26.1232 275.611 27.2848 275.232 29.8192" stroke="#141518" stroke-width="0.48" stroke-linecap="round" stroke-linejoin="round"/>
<path d="M275.534 26.08C279.473 25.4348 283.32 24.3246 286.997 22.7728C292.632 20.3728 296.923 17.7232 302.957 20.8528C306.216 22.5376 309.019 24.976 312.154 26.8576" stroke="#141518" stroke-width="0.48" stroke-linecap="round" stroke-linejoin="round"/>
<path d="M245.664 21.9327C245.664 21.9327 233.885 21.0975 229.858 17.2143C225.83 13.3311 226.046 1.97435 226.046 1.97435C226.356 3.31114 226.749 4.6273 227.222 5.91515C227.328 6.19355 227.443 6.46715 227.558 6.72155C228.422 8.58875 228.422 1.97435 228.422 1.97435L229.142 4.56155C229.142 4.56155 233.462 -3.05605 236.472 -5.07205C239.482 -7.08805 252.288 -6.65125 258.475 -4.20805L264.514 5.91995C264.514 5.91995 261.586 5.91995 261.048 7.86875C260.875 10.1727 261.048 13.7775 261.048 13.7775C257.657 12.4174 254.796 10.0002 252.888 6.88475C252.888 6.88475 250.195 16.4799 245.664 21.9327Z" fill="#141518"/>
<path d="M233.683 18.808C233.683 18.808 238.003 25.2688 236.823 30.328C236.823 30.328 233.554 25.576 232.647 24.568C231.048 22.8016 230.074 15.28 230.074 15.28L233.683 18.808Z" fill="#141518"/>
<path d="M321.053 67.1968C322.555 65.6608 324.6 64.7968 326.587 63.9904C328.33 63.2752 330.11 62.5504 331.992 62.416" stroke="#141518" stroke-width="0.48" stroke-linecap="round" stroke-linejoin="round"/>
<path d="M267.24 76.1008L275.136 77.32L275.856 88.5712L269.093 87.8176L269.986 86.9392L269.462 83.92L272.76 86.9392C273.15 86.762 273.481 86.4755 273.712 86.1143C273.943 85.7531 274.064 85.3327 274.061 84.904C274.152 83.3008 267.24 76.1008 267.24 76.1008Z" fill="#141518"/>
<path d="M267.643 82.2255L265.185 79.1967L262.747 78.5007L267.643 82.2255Z" fill="#141518"/>
<path d="M266.525 87.4479L261.581 86.2287L258.854 82.5903L266.525 87.4479Z" fill="#141518"/>
<path d="M268.752 65.9824C268.667 67.3306 269.101 68.6601 269.966 69.6976C270.822 70.5344 271.9 71.1076 273.072 71.3488C273.329 71.4474 273.603 71.4939 273.878 71.4857C274.154 71.4774 274.424 71.4146 274.675 71.3008C275.213 70.9744 275.371 70.2784 275.482 69.6592C275.962 66.9376 276.37 63.952 275.002 61.5568C274.493 60.6736 273.346 57.1312 272.352 56.9104C269.443 56.272 268.8 64 268.752 65.9824Z" fill="#141518"/>
<path d="M305.53 37.6001L307.622 46.9553C307.989 49.1007 307.788 51.3045 307.042 53.3489L307.483 56.7665L308.386 61.9457C308.386 61.9457 307.07 70.4705 304.296 74.3345C301.522 78.1985 301.214 76.7345 301.214 76.7345L302.27 87.7169C298.62 89.9186 294.464 91.145 290.203 91.2785C283.411 91.3649 275.856 88.5473 275.856 88.5473C275.821 84.7866 275.58 81.0306 275.136 77.2961C274.44 72.4913 273.571 67.3601 273.571 67.3601L270.912 64.0001L268.771 61.1201L267.24 56.1761L268.31 52.9217L268.862 52.3121C269.508 51.9752 270.191 51.7158 270.898 51.5393C271.733 51.3905 275.218 54.6977 275.218 54.6977L275.611 46.1057L276.446 36.9857L293.246 31.7393L301.699 34.3889L305.53 37.6001Z" fill="white"/>
<path d="M306.235 40.2976C306.235 40.2976 307.958 47.8144 307.838 48.7984C307.718 49.7824 307.042 54.3424 307.042 54.3424L308.338 61.4752C308.415 61.899 308.4 62.3344 308.294 62.752C307.733 64.984 305.717 72.4816 303.115 76.4368C300.034 81.1216 284.054 78.8656 280.728 76.4032L277.459 65.8192" stroke="#141518" stroke-width="0.48" stroke-linecap="round" stroke-linejoin="round"/>
<path d="M292.742 66.2559C292.742 66.2559 295.09 69.6159 298.608 69.0495" stroke="#141518" stroke-width="0.48" stroke-linecap="round" stroke-linejoin="round"/>
<path d="M273.571 67.3601C273.571 67.3601 276.101 80.0513 275.856 88.5761C275.856 88.5761 282.806 91.2257 289.493 91.3121C296.179 91.3985 302.28 87.7409 302.28 87.7409C301.757 84.4097 301.498 77.5169 301.498 77.5169" stroke="#141518" stroke-width="0.48" stroke-linecap="round" stroke-linejoin="round"/>
<path d="M275.635 55.4992C276.062 57.6352 277.075 59.5457 277.483 61.6769C277.561 62.2988 277.768 62.8974 278.093 63.4337C278.659 64.2353 280.57 64.0048 281.486 63.6592C281.554 63.6592 280.762 58.4465 280.742 57.7601C280.651 55.7459 280.956 53.7334 281.64 51.8369C282.293 50.1665 282.922 48.5632 282.749 46.7344C282.562 44.704 281.688 42.7888 280.795 40.9744C283.195 42.4281 285.963 43.1596 288.768 43.0816C293.16 42.8368 290.717 38.5697 290.717 38.5697C290.717 38.5697 303.278 42.2272 310.474 39.1792C317.669 36.1312 318.523 30.1552 316.714 27.3472C314.904 24.5392 303.557 28.2064 304.306 27.6928C305.266 27.0448 306.922 25.2928 306.48 24.016C306.402 23.8125 306.277 23.6298 306.117 23.4824C305.956 23.335 305.763 23.2268 305.554 23.1664C303.768 22.6096 301.037 24.1888 299.472 24.8992C297.384 25.8592 295.33 26.9008 293.107 27.4816C289.08 28.5424 284.89 28.5089 280.766 28.6481C278.818 28.7153 276.883 28.8592 274.949 29.0416C273.274 29.1952 271.406 29.3537 270.091 30.5297C270.049 30.5644 270.011 30.6029 269.976 30.6448C268.2 32.704 271.037 54.4001 271.037 54.4001L275.635 55.4992Z" fill="#141518"/>
<path d="M271.963 35.0897C271.963 35.0897 269.001 33.8369 267.062 35.6609C265.123 37.4849 268.43 54.6977 268.43 54.6977L272.467 54.6449L271.963 35.0897Z" fill="#141518"/>
<path d="M222.422 158.978H356.242L353.194 149.786C353.194 149.786 338.563 109.187 329.64 96.3664L325.2 93.5392L321.413 91.8592L304.464 91.1152L303.062 86.9392C303.062 86.9392 296.232 91.36 289.498 91.3072C282.763 91.2544 274.699 87.8032 274.699 87.8032L274.066 93.5632C274.066 93.5632 257.779 98.0656 254.866 98.7664C251.952 99.4672 237 106.797 237 106.797C237 106.797 236.76 107.963 236.362 110.267C235.963 112.571 229.944 131.574 229.944 131.574L221.16 158.978H222.422Z" fill="#8162FF"/>
<path d="M297.859 52.312C297.984 53.1568 298.133 54 298.306 54.8416C298.507 55.8016 298.786 56.8528 299.563 57.4672C300.202 57.9472 301.094 58.1008 301.651 58.6912C301.932 59.0371 302.11 59.4551 302.164 59.8974C302.219 60.3397 302.147 60.7884 301.958 61.192C301.573 61.9956 301.037 62.7176 300.379 63.3184" stroke="#141518" stroke-width="0.48" stroke-linecap="round" stroke-linejoin="round"/>
<path d="M303.946 54.6976C303.946 55.6576 303.547 56.4688 303.058 56.4688C302.568 56.4688 302.17 55.6768 302.17 54.6976C302.17 53.7184 302.568 52.9216 303.058 52.9216C303.547 52.9216 303.946 53.7184 303.946 54.6976Z" fill="#141518"/>
<path d="M293.16 55.1345C293.16 56.1185 292.761 56.9105 292.272 56.9105C291.782 56.9105 291.384 56.1185 291.384 55.1345C291.384 54.1505 291.782 53.3633 292.272 53.3633C292.761 53.3633 293.16 54.1553 293.16 55.1345Z" fill="#141518"/>
<path d="M293.798 50.1856C293.798 50.1856 290.995 47.9584 287.616 51.1936" stroke="#141518" stroke-width="0.96" stroke-linecap="round" stroke-linejoin="round"/>
<path d="M300.917 49.8064C300.917 49.8064 304.046 48.0592 306.197 50.2624" stroke="#141518" stroke-width="0.96" stroke-linecap="round" stroke-linejoin="round"/>
<path d="M307.042 67.1871C307.042 67.1871 305.467 75.8271 300.917 76.1007C296.366 76.3743 297.331 72.1023 297.331 72.1023L293.798 71.4831C293.798 71.4831 292.882 75.6975 289.805 75.6975C286.728 75.6975 281.842 68.5935 280.829 60.0975L275.232 54.6975C275.232 54.6975 277.464 67.2639 278.981 71.4975L280.728 76.3935C280.728 76.3935 287.616 80.7519 294.6 82.2399C301.637 80.7663 302.328 77.7711 303.106 76.4511C303.883 75.1311 307.042 67.1871 307.042 67.1871Z" fill="#141518"/>
<path d="M272.165 34.3936C272.202 33.8726 272.357 33.3667 272.617 32.9138C272.877 32.4608 273.236 32.0724 273.667 31.7776C274.532 31.1926 275.515 30.8073 276.547 30.6496C280.114 29.968 283.781 30.6208 287.395 31.0192C291.01 31.4176 294.835 31.5328 298.085 29.9056C299.362 29.256 300.499 28.3607 301.43 27.2709C302.36 26.1812 303.067 24.9185 303.509 23.5552" stroke="white" stroke-width="0.48" stroke-linecap="round" stroke-linejoin="round"/>
<path d="M276.864 35.4641C277.391 35.0331 277.995 34.7072 278.645 34.5041C281.251 33.6161 284.126 34.0577 286.805 34.7825C289.483 35.5073 292.085 36.5057 294.83 36.7025C296.611 36.7939 298.395 36.6779 300.149 36.3569C303.144 35.8769 306.158 35.1665 308.789 33.6449C311.419 32.1233 313.627 29.6945 314.333 26.7473" stroke="white" stroke-width="0.48" stroke-linecap="round" stroke-linejoin="round"/>
<path d="M274.061 37.0144C273.618 36.9777 273.174 37.0794 272.792 37.3056C272.409 37.5317 272.106 37.8711 271.925 38.2768C271.57 39.0931 271.406 39.9796 271.445 40.8688C271.379 45.0605 271.781 49.2465 272.645 53.3488" stroke="white" stroke-width="0.48" stroke-linecap="round" stroke-linejoin="round"/>
<path d="M277.694 66.4913C277.694 66.4913 275.942 67.9985 274.723 67.9313C273.686 67.8641 269.923 62.7137 268.843 61.2113C268.656 60.944 268.512 60.6493 268.416 60.3377L267.403 56.9249C267.216 56.306 267.24 55.6425 267.47 55.0385L268.022 53.5985C268.161 53.2298 268.372 52.8928 268.643 52.6075C268.914 52.3221 269.24 52.0943 269.602 51.9377C270.144 51.7029 270.744 51.6364 271.324 51.7468C271.904 51.8572 272.438 52.1394 272.856 52.5569L275.602 55.2977" fill="white"/>
<path d="M277.694 66.4913C277.694 66.4913 275.942 67.9985 274.723 67.9313C273.686 67.8641 269.923 62.7137 268.843 61.2113C268.656 60.944 268.512 60.6493 268.416 60.3377L267.403 56.9249C267.216 56.306 267.24 55.6425 267.47 55.0385L268.022 53.5985C268.161 53.2298 268.372 52.8928 268.643 52.6075C268.914 52.3221 269.24 52.0943 269.602 51.9377C270.144 51.7029 270.744 51.6364 271.324 51.7468C271.904 51.8572 272.438 52.1394 272.856 52.5569L275.602 55.2977" stroke="#141518" stroke-width="0.48" stroke-linecap="round" stroke-linejoin="round"/>
<path d="M304.301 92.0944L303.058 86.9392C303.058 86.9392 295.406 91.6912 290.203 91.3024C285 90.9136 276.859 89.104 274.694 87.8032L274.061 93.5632C274.061 93.5632 280.781 98.9776 289.32 98.7568C297.859 98.536 304.301 92.0944 304.301 92.0944Z" stroke="#141518" stroke-width="0.48" stroke-linecap="round" stroke-linejoin="round"/>
<path d="M319.694 68.368C315.043 59.1088 307.262 53.5264 307.262 53.5264" stroke="#141518" stroke-width="0.48" stroke-linecap="round" stroke-linejoin="round"/>
<path d="M274.061 93.5393L256.421 98.2673C255.237 98.5832 254.078 98.9875 252.955 99.4769C248.683 101.339 237.754 106.135 236.986 106.797C236.854 106.92 236.749 107.069 236.676 107.234C236.604 107.399 236.565 107.577 236.563 107.757C236.492 109.922 236.141 112.07 235.522 114.146L221.122 158.968" stroke="#141518" stroke-width="0.48" stroke-linecap="round" stroke-linejoin="round"/>
<path d="M356.242 158.978C344.28 121.83 334.44 103.84 330.835 97.9311C329.939 96.461 328.649 95.2719 327.11 94.4991L323.174 92.5263C322.008 91.9458 320.732 91.6186 319.43 91.5663L304.301 90.9375" stroke="#141518" stroke-width="0.48" stroke-linecap="round" stroke-linejoin="round"/>
<path d="M271.277 108.088C270.335 109.758 269.491 111.481 268.747 113.248" stroke="#141518" stroke-width="0.48" stroke-linecap="round" stroke-linejoin="round"/>
<path d="M278.933 96.4287C276.532 99.6288 274.302 102.953 272.251 106.389" stroke="#141518" stroke-width="0.48" stroke-linecap="round" stroke-linejoin="round"/>
<path d="M281.074 97.3071C281.074 97.3071 278.582 104.31 277.714 110.267" stroke="#141518" stroke-width="0.48" stroke-linecap="round" stroke-linejoin="round"/>
<path d="M305.448 104.838C306.085 106.08 306.618 107.372 307.042 108.702" stroke="#141518" stroke-width="0.48" stroke-linecap="round" stroke-linejoin="round"/>
<path d="M299.256 95.7761C301.143 97.9434 302.831 100.276 304.301 102.746" stroke="#141518" stroke-width="0.48" stroke-linecap="round" stroke-linejoin="round"/>
<path d="M296.04 97.3071C296.04 97.3071 298.603 104.781 298.594 108.702" stroke="#141518" stroke-width="0.48" stroke-linecap="round" stroke-linejoin="round"/>
<path opacity="0.3" d="M348.946 158.982H221.16L229.958 131.574C229.958 131.574 235.978 112.571 236.371 110.272C236.765 107.973 237.01 106.797 237.01 106.797C237.01 106.797 251.971 99.4431 254.89 98.7375C257.808 98.0319 274.09 93.5439 274.09 93.5439L274.723 87.7839C274.723 87.7839 282.792 91.2351 289.526 91.2879C294.029 91.3263 298.584 89.3679 301.094 88.0479L301.517 91.9215C299.866 93.4431 295.79 96.9183 291.187 98.7135C291.576 98.6271 297.581 97.2255 301.747 93.9855V94.1775C301.747 94.1775 321.216 95.7519 324.091 98.0175C330.274 103.005 344.765 147.717 348.946 158.982Z" fill="black"/>
<path d="M367.234 165.03C365.189 163.317 363.35 162.208 362.112 159.717C359.846 155.152 359.088 149.848 358.546 144.837C357.058 131.008 354.754 140.632 354.754 140.632C354.86 143.786 354.7 146.942 354.274 150.069C353.482 156.237 351.797 162.069 345.782 164.949C345.629 165.015 345.499 165.124 345.406 165.263C345.313 165.402 345.262 165.564 345.259 165.731C345.259 167.171 350.266 168.309 356.443 168.309C362.621 168.309 367.627 167.157 367.627 165.731C367.619 165.592 367.579 165.457 367.51 165.336C367.442 165.215 367.348 165.11 367.234 165.03Z" fill="#8162FF" stroke="#141518" stroke-width="0.48" stroke-linecap="round" stroke-linejoin="round"/>
<path d="M369.677 140.891C367.277 151.869 358.157 159.194 349.277 157.254C346.301 156.584 343.624 154.967 341.645 152.646C337.718 148.149 335.971 141.127 337.555 133.888C339.955 122.915 349.075 115.591 357.95 117.525C361.79 118.365 364.987 120.823 367.142 124.245C369.96 128.661 371.03 134.699 369.677 140.891Z" stroke="#141518" stroke-width="0.48" stroke-linecap="round" stroke-linejoin="round"/>
<path d="M373.286 141.486C370.474 154.331 359.726 162.899 349.286 160.634C345.789 159.851 342.639 157.959 340.306 155.238C335.688 149.982 333.634 141.765 335.506 133.293C338.318 120.453 349.061 111.88 359.506 114.146C364.046 115.13 367.781 117.986 370.315 121.994C373.603 127.178 374.88 134.243 373.286 141.486Z" fill="#8162FF" stroke="#141518" stroke-width="0.48" stroke-linecap="round" stroke-linejoin="round"/>
<path opacity="0.5" d="M348.672 120.592C348.672 120.592 340.714 126.784 339.106 136C337.498 145.216 339.739 153.126 346.598 156.39C353.458 159.654 360.24 156.467 365.045 150.779C369.85 145.091 371.285 135.664 369.254 128.867C366.941 121.12 357.259 115.307 348.672 120.592Z" fill="white"/>
<path d="M369.677 140.891C367.277 151.869 358.157 159.194 349.277 157.254C346.302 156.584 343.624 154.967 341.645 152.646C338.842 148.216 337.757 142.182 339.111 135.986C341.511 125.013 350.631 117.688 359.511 119.622C362.486 120.294 365.164 121.913 367.142 124.235C369.96 128.661 371.03 134.699 369.677 140.891Z" stroke="#141518" stroke-width="0.48" stroke-linecap="round" stroke-linejoin="round"/>
<path d="M340.718 151.394C340.718 151.394 336.878 144.333 339.346 134.982C341.813 125.632 348.907 120.405 352.786 119.858C356.664 119.31 363.346 119.061 368.069 125.248C368.069 125.248 364.109 116.958 354.408 117.232C344.707 117.506 340.378 125.92 337.963 132.246C335.549 138.573 338.28 147.957 340.718 151.394Z" fill="#141518"/>
<path d="M346.598 135.184L353.458 128.325" stroke="#141518" stroke-width="0.48" stroke-linecap="round" stroke-linejoin="round"/>
<path d="M347.534 142.931L354.389 136.077" stroke="#141518" stroke-width="0.48" stroke-linecap="round" stroke-linejoin="round"/>
<path d="M347.534 137.738L360.374 124.893" stroke="#141518" stroke-width="0.48" stroke-linecap="round" stroke-linejoin="round"/>
<path d="M25.3255 73.969C24.9514 73.969 24.6475 73.8877 24.4137 73.7254C24.1955 73.563 24.063 73.3488 24.0162 73.0831C23.9694 72.8025 24.0239 72.4924 24.1799 72.1528L30.3522 59.196C30.5549 58.7678 30.7965 58.4651 31.077 58.2879C31.3732 58.0959 31.7083 58 32.0824 58C32.4408 58 32.7604 58.0959 33.041 58.2879C33.3371 58.4651 33.5865 58.7678 33.7891 59.196L39.9849 72.1528C40.1563 72.4924 40.2187 72.8025 40.1719 73.0831C40.1252 73.3636 39.9926 73.5851 39.7745 73.7475C39.5563 73.8952 39.2678 73.969 38.9094 73.969C38.4729 73.969 38.1301 73.873 37.8807 73.6811C37.6469 73.4744 37.4364 73.1643 37.2494 72.7508L35.7297 69.4064L36.9922 70.1816H27.1258L28.3883 69.4064L26.892 72.7508C26.6893 73.179 26.4789 73.4891 26.2607 73.6811C26.0425 73.873 25.7307 73.969 25.3255 73.969ZM32.0356 61.2558L28.7624 68.6312L28.1545 67.9225H35.9635L35.379 68.6312L32.0824 61.2558H32.0356ZM47.496 78C46.6543 78 45.836 77.9262 45.0411 77.7785C44.2616 77.6308 43.5525 77.402 42.9135 77.0919C42.6173 76.9442 42.4146 76.767 42.3056 76.5604C42.2121 76.3537 42.1808 76.1395 42.2121 75.918C42.2588 75.7114 42.3523 75.5267 42.4926 75.3643C42.6484 75.2019 42.8355 75.0912 43.0537 75.0321C43.2719 74.973 43.498 75.0026 43.7318 75.1207C44.4176 75.4456 45.0644 75.6523 45.6723 75.7409C46.2957 75.8443 46.8257 75.8959 47.2622 75.8959C48.3064 75.8959 49.0858 75.6523 49.6002 75.165C50.1301 74.6925 50.3951 73.9838 50.3951 73.0388V71.0454H50.6055C50.3717 71.7984 49.8808 72.4038 49.1326 72.8616C48.3999 73.3045 47.5661 73.526 46.6309 73.526C45.6022 73.526 44.7059 73.3045 43.9422 72.8616C43.1784 72.4038 42.5861 71.7689 42.1653 70.9568C41.7444 70.1447 41.534 69.1997 41.534 68.1218C41.534 67.3097 41.6509 66.5788 41.8847 65.9291C42.134 65.2647 42.477 64.6962 42.9135 64.2237C43.3654 63.7512 43.9032 63.3894 44.5267 63.1384C45.1657 62.8726 45.8671 62.7398 46.6309 62.7398C47.5973 62.7398 48.4389 62.9686 49.156 63.4264C49.8885 63.8693 50.3639 64.46 50.5822 65.1982L50.3484 65.7519V64.1794C50.3484 63.7216 50.473 63.3747 50.7225 63.1384C50.9874 62.9021 51.3459 62.7841 51.7979 62.7841C52.2655 62.7841 52.624 62.9021 52.8734 63.1384C53.1227 63.3747 53.2475 63.7216 53.2475 64.1794V72.7065C53.2475 74.4636 52.7565 75.7852 51.7746 76.6711C50.7926 77.557 49.3664 78 47.496 78ZM47.4258 71.4219C48.0337 71.4219 48.5558 71.289 48.9923 71.0233C49.4287 70.7575 49.7639 70.381 49.9977 69.8937C50.247 69.3916 50.3717 68.8011 50.3717 68.1218C50.3717 67.103 50.1067 66.3056 49.5768 65.7298C49.0468 65.1391 48.3298 64.8439 47.4258 64.8439C46.818 64.8439 46.2957 64.9767 45.8594 65.2425C45.4229 65.5083 45.08 65.8848 44.8306 66.3721C44.5968 66.8594 44.4799 67.4426 44.4799 68.1218C44.4799 69.1406 44.7449 69.9453 45.2749 70.536C45.8047 71.1266 46.5218 71.4219 47.4258 71.4219ZM61.9102 74.0133C60.6165 74.0133 59.502 73.7845 58.5668 73.3267C57.6316 72.8689 56.9068 72.2193 56.3925 71.3776C55.8937 70.536 55.6443 69.5393 55.6443 68.3876C55.6443 67.2654 55.8859 66.2835 56.3691 65.4419C56.8678 64.6002 57.5459 63.9431 58.4032 63.4707C59.276 62.9834 60.2658 62.7398 61.3725 62.7398C62.183 62.7398 62.9078 62.8653 63.5468 63.1163C64.2015 63.3673 64.7548 63.7291 65.2068 64.2015C65.6744 64.674 66.0251 65.2499 66.2589 65.9291C66.5083 66.5936 66.633 67.3466 66.633 68.1883C66.633 68.454 66.5317 68.6607 66.3291 68.8084C66.142 68.9413 65.8692 69.0078 65.5108 69.0078H58.0057V67.4131H64.5755L64.2015 67.7453C64.2015 67.066 64.0923 66.4976 63.8741 66.0399C63.6715 65.5821 63.3675 65.2352 62.9623 64.9989C62.5726 64.7479 62.0816 64.6224 61.4894 64.6224C60.8347 64.6224 60.2736 64.7701 59.806 65.0653C59.354 65.3459 59.0033 65.7519 58.7539 66.2835C58.5201 66.8003 58.4032 67.4204 58.4032 68.144V68.299C58.4032 69.5098 58.6994 70.4179 59.2916 71.0233C59.8995 71.6139 60.788 71.9092 61.957 71.9092C62.3622 71.9092 62.8143 71.8649 63.313 71.7763C63.8274 71.6729 64.3106 71.5032 64.7626 71.2669C65.0899 71.0897 65.3782 71.0159 65.6277 71.0454C65.8771 71.0602 66.0719 71.1413 66.2122 71.289C66.3681 71.4367 66.4616 71.6213 66.4927 71.8427C66.5239 72.0494 66.4771 72.2636 66.3524 72.485C66.2433 72.7065 66.0485 72.8985 65.7679 73.0609C65.2224 73.3858 64.5912 73.6294 63.8741 73.7918C63.1727 73.9395 62.5181 74.0133 61.9102 74.0133ZM70.397 73.969C69.9294 73.969 69.5709 73.8509 69.3215 73.6146C69.0722 73.3636 68.9474 73.0093 68.9474 72.5515V64.1794C68.9474 63.7216 69.0722 63.3747 69.3215 63.1384C69.5709 62.9021 69.9216 62.7841 70.3736 62.7841C70.8257 62.7841 71.1764 62.9021 71.4257 63.1384C71.6752 63.3747 71.7998 63.7216 71.7998 64.1794V65.6855L71.5426 65.1318C71.8856 64.3492 72.4156 63.7586 73.1325 63.3599C73.8651 62.9464 74.6912 62.7398 75.6108 62.7398C76.5305 62.7398 77.2864 62.9021 77.8787 63.227C78.471 63.5519 78.9153 64.0465 79.2113 64.711C79.5075 65.3606 79.6556 66.1876 79.6556 67.1916V72.5515C79.6556 73.0093 79.5309 73.3636 79.2815 73.6146C79.0322 73.8509 78.6736 73.969 78.206 73.969C77.7384 73.969 77.3722 73.8509 77.1071 73.6146C76.8578 73.3636 76.733 73.0093 76.733 72.5515V67.3245C76.733 66.4828 76.5616 65.87 76.2187 65.4862C75.8914 65.1023 75.377 64.9103 74.6756 64.9103C73.8184 64.9103 73.1325 65.1687 72.6181 65.6855C72.1194 66.1876 71.87 66.8594 71.87 67.701V72.5515C71.87 73.4965 71.379 73.969 70.397 73.969ZM87.0195 74.0133C86.0219 74.0133 85.1413 73.7845 84.3775 73.3267C83.6294 72.8689 83.0448 72.2193 82.624 71.3776C82.2032 70.5212 81.9927 69.5172 81.9927 68.3654C81.9927 67.1989 82.2032 66.2023 82.624 65.3754C83.0448 64.5338 83.6294 63.8841 84.3775 63.4264C85.1413 62.9686 86.0219 62.7398 87.0195 62.7398C87.9703 62.7398 88.7964 62.9612 89.4978 63.4042C90.2148 63.8472 90.6979 64.4304 90.9474 65.1539H90.6902V59.3954C90.6902 58.9376 90.8148 58.5907 91.0643 58.3544C91.3137 58.1181 91.6722 58 92.1398 58C92.6074 58 92.9658 58.1181 93.2152 58.3544C93.4802 58.5907 93.6127 58.9376 93.6127 59.3954V72.5515C93.6127 73.0093 93.488 73.3636 93.2386 73.6146C92.9892 73.8509 92.6307 73.969 92.1631 73.969C91.6955 73.969 91.3371 73.8509 91.0876 73.6146C90.8382 73.3636 90.7136 73.0093 90.7136 72.5515V70.8239L90.9707 71.4884C90.7369 72.2562 90.2616 72.8689 89.5445 73.3267C88.8275 73.7845 87.9858 74.0133 87.0195 74.0133ZM87.8378 71.9092C88.4145 71.9092 88.921 71.7763 89.3575 71.5105C89.794 71.2447 90.129 70.8534 90.3629 70.3367C90.6123 69.8051 90.7369 69.148 90.7369 68.3654C90.7369 67.1842 90.472 66.3056 89.942 65.7298C89.412 65.1391 88.7106 64.8439 87.8378 64.8439C87.261 64.8439 86.7545 64.9767 86.3181 65.2425C85.8816 65.4935 85.5388 65.8848 85.2894 66.4164C85.0555 66.9332 84.9386 67.5829 84.9386 68.3654C84.9386 69.532 85.2036 70.4179 85.7336 71.0233C86.2636 71.6139 86.965 71.9092 87.8378 71.9092ZM102.277 74.0133C100.984 74.0133 99.8695 73.7845 98.9343 73.3267C97.999 72.8689 97.2743 72.2193 96.7599 71.3776C96.2612 70.536 96.0117 69.5393 96.0117 68.3876C96.0117 67.2654 96.2533 66.2835 96.7365 65.4419C97.2353 64.6002 97.9133 63.9431 98.7706 63.4707C99.6434 62.9834 100.633 62.7398 101.739 62.7398C102.55 62.7398 103.275 62.8653 103.914 63.1163C104.568 63.3673 105.122 63.7291 105.574 64.2015C106.041 64.674 106.392 65.2499 106.626 65.9291C106.876 66.5936 107 67.3466 107 68.1883C107 68.454 106.899 68.6607 106.696 68.8084C106.509 68.9413 106.237 69.0078 105.878 69.0078H98.3731V67.4131H104.943L104.568 67.7453C104.568 67.066 104.46 66.4976 104.241 66.0399C104.039 65.5821 103.735 65.2352 103.329 64.9989C102.94 64.7479 102.449 64.6224 101.856 64.6224C101.202 64.6224 100.641 64.7701 100.173 65.0653C99.7214 65.3459 99.3707 65.7519 99.1213 66.2835C98.8875 66.8003 98.7706 67.4204 98.7706 68.144V68.299C98.7706 69.5098 99.0668 70.4179 99.659 71.0233C100.267 71.6139 101.155 71.9092 102.324 71.9092C102.73 71.9092 103.182 71.8649 103.68 71.7763C104.194 71.6729 104.678 71.5032 105.13 71.2669C105.457 71.0897 105.746 71.0159 105.995 71.0454C106.244 71.0602 106.439 71.1413 106.579 71.289C106.735 71.4367 106.829 71.6213 106.86 71.8427C106.892 72.0494 106.845 72.2636 106.719 72.485C106.611 72.7065 106.415 72.8985 106.135 73.0609C105.59 73.3858 104.958 73.6294 104.241 73.7918C103.54 73.9395 102.885 74.0133 102.277 74.0133Z" fill="white"/>
<path d="M26.3645 97.9502C25.9243 97.9502 25.5869 97.8175 25.3521 97.5519C25.1173 97.2697 25 96.8714 25 96.3568V86.9461C25 86.4315 25.1173 86.0415 25.3521 85.7759C25.5869 85.5103 25.917 85.3776 26.3425 85.3776C26.768 85.3776 27.0981 85.5103 27.3329 85.7759C27.5676 86.0415 27.685 86.4315 27.685 86.9461V88.639L27.4429 88.0166C27.7657 87.137 28.2645 86.473 28.9395 86.0249C29.629 85.5601 30.4067 85.3278 31.2723 85.3278C32.1379 85.3278 32.8496 85.5103 33.4071 85.8755C33.9646 86.2407 34.3828 86.7967 34.6616 87.5436C34.9404 88.2738 35.0797 89.2034 35.0797 90.3319V96.3568C35.0797 96.8714 34.9624 97.2697 34.7276 97.5519C34.4928 97.8175 34.1554 97.9502 33.7152 97.9502C33.2751 97.9502 32.9302 97.8175 32.6808 97.5519C32.4461 97.2697 32.3287 96.8714 32.3287 96.3568V90.4813C32.3287 89.5353 32.1674 88.8464 31.8445 88.4149C31.5364 87.9834 31.0522 87.7676 30.392 87.7676C29.585 87.7676 28.9395 88.0581 28.4553 88.639C27.9858 89.2034 27.751 89.9585 27.751 90.9046V96.3568C27.751 97.4191 27.2888 97.9502 26.3645 97.9502ZM42.7817 98C41.6667 98 40.6983 97.7428 39.8766 97.2282C39.055 96.7137 38.4168 95.9834 37.9619 95.0373C37.5071 94.0746 37.2796 92.9461 37.2796 91.6515C37.2796 90.6722 37.4044 89.8009 37.6538 89.0373C37.9179 88.2573 38.292 87.5934 38.7762 87.0456C39.2604 86.4813 39.84 86.0581 40.5148 85.7759C41.1898 85.4772 41.9454 85.3278 42.7817 85.3278C43.8968 85.3278 44.8652 85.585 45.6868 86.0996C46.5085 86.6141 47.1467 87.3444 47.6015 88.2905C48.0563 89.2365 48.2837 90.3568 48.2837 91.6515C48.2837 92.6307 48.1517 93.5104 47.8876 94.2905C47.6382 95.0705 47.2713 95.7427 46.7872 96.3071C46.303 96.8548 45.7235 97.278 45.0485 97.5768C44.3737 97.8589 43.618 98 42.7817 98ZM42.7817 95.6349C43.3246 95.6349 43.8015 95.4855 44.2122 95.1867C44.6231 94.888 44.9385 94.4481 45.1586 93.8672C45.3933 93.2697 45.5107 92.5311 45.5107 91.6515C45.5107 90.3237 45.2613 89.3361 44.7624 88.6888C44.2636 88.0249 43.6034 87.6929 42.7817 87.6929C42.2389 87.6929 41.762 87.8423 41.3512 88.1411C40.9404 88.4232 40.6176 88.8631 40.3828 89.4606C40.1627 90.0415 40.0527 90.7718 40.0527 91.6515C40.0527 92.9627 40.3022 93.9585 40.801 94.639C41.2998 95.3029 41.9601 95.6349 42.7817 95.6349ZM54.4938 98C53.863 98 53.1953 97.9253 52.4911 97.7759C51.7868 97.6266 51.156 97.3693 50.5984 97.0041C50.3637 96.8381 50.1949 96.6473 50.0922 96.4315C50.0042 96.1992 49.9675 95.9751 49.9821 95.7593C50.0116 95.527 50.0849 95.3278 50.2022 95.1618C50.3343 94.9958 50.4957 94.888 50.6864 94.8382C50.8919 94.7884 51.112 94.8299 51.3467 94.9627C51.9336 95.278 52.4838 95.5021 52.9973 95.6349C53.5109 95.7511 54.017 95.8091 54.5158 95.8091C55.2201 95.8091 55.741 95.6764 56.0784 95.4108C56.4305 95.1287 56.6066 94.7635 56.6066 94.3153C56.6066 93.9336 56.4893 93.6432 56.2545 93.444C56.0344 93.2282 55.697 93.0705 55.2421 92.971L53.0413 92.4979C52.1316 92.2988 51.4347 91.9253 50.9505 91.3776C50.481 90.8132 50.2462 90.0912 50.2462 89.2116C50.2462 88.4149 50.437 87.7261 50.8185 87.1452C51.2146 86.5643 51.7575 86.1162 52.4471 85.8008C53.1367 85.4854 53.929 85.3278 54.8239 85.3278C55.4696 85.3278 56.0711 85.4107 56.6286 85.5768C57.2008 85.7261 57.751 85.9668 58.2792 86.2987C58.4993 86.4315 58.6461 86.6058 58.7194 86.8216C58.8074 87.0374 58.8294 87.2614 58.7854 87.4938C58.7414 87.7096 58.6534 87.9087 58.5213 88.0913C58.3893 88.2573 58.2206 88.3651 58.0151 88.4149C57.8245 88.4481 57.6044 88.3983 57.3549 88.2656C56.9001 88 56.4599 87.8092 56.0344 87.6929C55.6236 87.5767 55.2275 87.5187 54.846 87.5187C54.1271 87.5187 53.5915 87.6598 53.2394 87.9419C52.9019 88.224 52.7332 88.5975 52.7332 89.0622C52.7332 89.4108 52.8359 89.7013 53.0413 89.9336C53.2468 90.1659 53.5622 90.3237 53.9876 90.4066L56.1884 90.8797C57.1422 91.0788 57.8611 91.444 58.3452 91.9751C58.8441 92.5062 59.0935 93.2199 59.0935 94.1162C59.0935 95.3278 58.6754 96.2822 57.8391 96.9793C57.0027 97.6597 55.8877 98 54.4938 98ZM68.684 97.9502C68.2438 97.9502 67.9063 97.8175 67.6716 97.5519C67.4368 97.2697 67.3195 96.8714 67.3195 96.3568V86.9461C67.3195 86.4315 67.4368 86.0415 67.6716 85.7759C67.9063 85.5103 68.2364 85.3776 68.662 85.3776C69.0874 85.3776 69.4175 85.5103 69.6523 85.7759C69.887 86.0415 70.0045 86.4315 70.0045 86.9461V88.7635L69.7624 88.0166C70.0558 87.1868 70.5107 86.5311 71.1269 86.0498C71.7431 85.5685 72.4767 85.3278 73.3277 85.3278C74.1933 85.3278 74.9049 85.5601 75.4625 86.0249C76.02 86.4897 76.4088 87.2033 76.6289 88.166H76.3208C76.6142 87.2863 77.0984 86.5975 77.7733 86.0996C78.4482 85.585 79.2259 85.3278 80.1062 85.3278C80.9278 85.3278 81.6028 85.5103 82.131 85.8755C82.6738 86.2407 83.0773 86.7967 83.3414 87.5436C83.6055 88.2738 83.7375 89.2034 83.7375 90.3319V96.3568C83.7375 96.8714 83.6128 97.2697 83.3634 97.5519C83.1286 97.8175 82.7912 97.9502 82.351 97.9502C81.9109 97.9502 81.5733 97.8175 81.3387 97.5519C81.1039 97.2697 80.9865 96.8714 80.9865 96.3568V90.4564C80.9865 89.527 80.8471 88.8464 80.5684 88.4149C80.3043 87.9834 79.8494 87.7676 79.2039 87.7676C78.4849 87.7676 77.92 88.0581 77.5092 88.639C77.0984 89.2034 76.893 89.9917 76.893 91.0041V96.3568C76.893 96.8714 76.7756 97.2697 76.5409 97.5519C76.3061 97.8175 75.9687 97.9502 75.5285 97.9502C75.0883 97.9502 74.7435 97.8175 74.4941 97.5519C74.2593 97.2697 74.142 96.8714 74.142 96.3568V90.4564C74.142 89.527 74.0025 88.8464 73.7238 88.4149C73.4597 87.9834 73.0122 87.7676 72.3813 87.7676C71.6624 87.7676 71.0975 88.0581 70.6867 88.639C70.2759 89.2034 70.0705 89.9917 70.0705 91.0041V96.3568C70.0705 97.4191 69.6083 97.9502 68.684 97.9502ZM91.8795 98C90.6617 98 89.6126 97.7428 88.7323 97.2282C87.852 96.7137 87.1697 95.9834 86.6855 95.0373C86.2161 94.0913 85.9813 92.971 85.9813 91.6764C85.9813 90.4149 86.2088 89.3112 86.6635 88.3651C87.1331 87.4191 87.7713 86.6805 88.5782 86.1494C89.3999 85.6017 90.3316 85.3278 91.3733 85.3278C92.1363 85.3278 92.8185 85.4689 93.42 85.751C94.0363 86.0332 94.5572 86.4399 94.9826 86.971C95.4228 87.502 95.7529 88.1493 95.973 88.9129C96.2078 89.6598 96.3251 90.5062 96.3251 91.4523C96.3251 91.751 96.2298 91.9834 96.039 92.1494C95.8629 92.2988 95.6062 92.3734 95.2687 92.3734H88.2041V90.5809H94.3884L94.0363 90.9544C94.0363 90.1908 93.9336 89.5519 93.7281 89.0373C93.5375 88.5228 93.2514 88.1328 92.8698 87.8672C92.5031 87.5851 92.0409 87.444 91.4833 87.444C90.8671 87.444 90.3389 87.61 89.8987 87.9419C89.4733 88.2573 89.1431 88.7137 88.9084 89.3112C88.6883 89.8921 88.5782 90.5892 88.5782 91.4025V91.5768C88.5782 92.9378 88.857 93.9585 89.4145 94.639C89.9868 95.3029 90.8231 95.6349 91.9235 95.6349C92.305 95.6349 92.7305 95.5851 93.1999 95.4855C93.6841 95.3693 94.139 95.1785 94.5644 94.9129C94.8726 94.7137 95.1441 94.6307 95.3788 94.6639C95.6135 94.6805 95.7969 94.7717 95.929 94.9378C96.0757 95.1038 96.1637 95.3112 96.1931 95.5602C96.2225 95.7925 96.1785 96.0332 96.061 96.2822C95.9584 96.5311 95.7749 96.7469 95.5108 96.9295C94.9973 97.2946 94.4031 97.5685 93.7281 97.751C93.0679 97.9171 92.4517 98 91.8795 98ZM102.18 98C100.961 98 100.045 97.6099 99.4286 96.8299C98.8123 96.0332 98.5042 94.8713 98.5042 93.3444V81.5685C98.5042 81.0539 98.6213 80.6639 98.8563 80.3983C99.0904 80.1327 99.4286 80 99.8687 80C100.309 80 100.646 80.1327 100.881 80.3983C101.13 80.6639 101.255 81.0539 101.255 81.5685V93.195C101.255 93.9585 101.394 94.5228 101.673 94.888C101.966 95.2532 102.378 95.4357 102.906 95.4357C103.023 95.4357 103.133 95.4357 103.236 95.4357C103.338 95.4191 103.441 95.4025 103.544 95.3859C103.749 95.3527 103.888 95.419 103.962 95.5851C104.035 95.7344 104.072 96.0498 104.072 96.5311C104.072 96.9461 103.998 97.2697 103.852 97.5021C103.705 97.7344 103.463 97.8755 103.126 97.9253C102.979 97.9419 102.825 97.9585 102.664 97.9751C102.502 97.9917 102.341 98 102.18 98ZM106.896 97.9502C106.456 97.9502 106.119 97.8175 105.884 97.5519C105.649 97.2697 105.532 96.8714 105.532 96.3568V81.5685C105.532 81.0539 105.649 80.6639 105.884 80.3983C106.119 80.1327 106.456 80 106.896 80C107.336 80 107.674 80.1327 107.909 80.3983C108.158 80.6639 108.283 81.0539 108.283 81.5685V88.0166H107.975C108.298 87.137 108.796 86.473 109.471 86.0249C110.161 85.5601 110.939 85.3278 111.804 85.3278C112.669 85.3278 113.382 85.5103 113.939 85.8755C114.496 86.2407 114.914 86.7967 115.193 87.5436C115.472 88.2738 115.612 89.2034 115.612 90.3319V96.3568C115.612 96.8714 115.494 97.2697 115.259 97.5519C115.024 97.8175 114.687 97.9502 114.247 97.9502C113.807 97.9502 113.462 97.8175 113.213 97.5519C112.978 97.2697 112.861 96.8714 112.861 96.3568V90.4813C112.861 89.5353 112.699 88.8464 112.376 88.4149C112.068 87.9834 111.584 87.7676 110.924 87.7676C110.117 87.7676 109.471 88.0581 108.987 88.639C108.518 89.2034 108.283 89.9585 108.283 90.9046V96.3568C108.283 97.4191 107.821 97.9502 106.896 97.9502ZM123.313 98C122.198 98 121.23 97.7428 120.408 97.2282C119.587 96.7137 118.949 95.9834 118.494 95.0373C118.038 94.0746 117.811 92.9461 117.811 91.6515C117.811 90.6722 117.936 89.8009 118.185 89.0373C118.45 88.2573 118.824 87.5934 119.308 87.0456C119.792 86.4813 120.371 86.0581 121.047 85.7759C121.722 85.4772 122.477 85.3278 123.313 85.3278C124.429 85.3278 125.397 85.585 126.218 86.0996C127.04 86.6141 127.678 87.3444 128.133 88.2905C128.588 89.2365 128.815 90.3568 128.815 91.6515C128.815 92.6307 128.683 93.5104 128.419 94.2905C128.17 95.0705 127.803 95.7427 127.319 96.3071C126.835 96.8548 126.255 97.278 125.58 97.5768C124.905 97.8589 124.15 98 123.313 98ZM123.313 95.6349C123.857 95.6349 124.333 95.4855 124.744 95.1867C125.155 94.888 125.47 94.4481 125.69 93.8672C125.925 93.2697 126.042 92.5311 126.042 91.6515C126.042 90.3237 125.793 89.3361 125.294 88.6888C124.795 88.0249 124.135 87.6929 123.313 87.6929C122.77 87.6929 122.294 87.8423 121.883 88.1411C121.472 88.4232 121.15 88.8631 120.915 89.4606C120.694 90.0415 120.584 90.7718 120.584 91.6515C120.584 92.9627 120.833 93.9585 121.333 94.639C121.832 95.3029 122.492 95.6349 123.313 95.6349ZM132.495 97.9502C132.04 97.9502 131.687 97.8175 131.438 97.5519C131.203 97.2697 131.086 96.8714 131.086 96.3568V86.9461C131.086 86.4315 131.203 86.0415 131.438 85.7759C131.673 85.5103 132.004 85.3776 132.429 85.3776C132.854 85.3776 133.184 85.5103 133.419 85.7759C133.654 86.0415 133.771 86.4315 133.771 86.9461V88.5145H133.551C133.756 87.5187 134.16 86.7635 134.762 86.249C135.363 85.7344 136.163 85.4274 137.161 85.3278C137.469 85.2946 137.711 85.3859 137.887 85.6017C138.078 85.8008 138.188 86.1162 138.217 86.5477C138.246 86.9627 138.158 87.3029 137.953 87.5685C137.762 87.8174 137.469 87.9668 137.072 88.0166L136.588 88.0664C135.693 88.166 135.019 88.4814 134.564 89.0124C134.108 89.527 133.881 90.2573 133.881 91.2033V96.3568C133.881 96.8714 133.764 97.2697 133.529 97.5519C133.294 97.8175 132.95 97.9502 132.495 97.9502ZM144.836 98C143.619 98 142.57 97.7428 141.689 97.2282C140.809 96.7137 140.127 95.9834 139.642 95.0373C139.173 94.0913 138.938 92.971 138.938 91.6764C138.938 90.4149 139.166 89.3112 139.62 88.3651C140.091 87.4191 140.729 86.6805 141.535 86.1494C142.357 85.6017 143.289 85.3278 144.33 85.3278C145.093 85.3278 145.776 85.4689 146.377 85.751C146.993 86.0332 147.514 86.4399 147.94 86.971C148.38 87.502 148.71 88.1493 148.93 88.9129C149.165 89.6598 149.282 90.5062 149.282 91.4523C149.282 91.751 149.187 91.9834 148.996 92.1494C148.82 92.2988 148.564 92.3734 148.226 92.3734H141.161V90.5809H147.345L146.993 90.9544C146.993 90.1908 146.891 89.5519 146.685 89.0373C146.495 88.5228 146.209 88.1328 145.827 87.8672C145.461 87.5851 144.998 87.444 144.44 87.444C143.824 87.444 143.296 87.61 142.856 87.9419C142.43 88.2573 142.1 88.7137 141.865 89.3112C141.645 89.8921 141.535 90.5892 141.535 91.4025V91.5768C141.535 92.9378 141.814 93.9585 142.371 94.639C142.944 95.3029 143.78 95.6349 144.88 95.6349C145.263 95.6349 145.688 95.5851 146.157 95.4855C146.641 95.3693 147.096 95.1785 147.521 94.9129C147.829 94.7137 148.102 94.6307 148.336 94.6639C148.571 94.6805 148.754 94.7717 148.886 94.9378C149.033 95.1038 149.121 95.3112 149.15 95.5602C149.18 95.7925 149.136 96.0332 149.018 96.2822C148.916 96.5311 148.732 96.7469 148.468 96.9295C147.955 97.2946 147.36 97.5685 146.685 97.751C146.025 97.9171 145.409 98 144.836 98ZM155.4 98C154.769 98 154.102 97.9253 153.398 97.7759C152.693 97.6266 152.062 97.3693 151.505 97.0041C151.27 96.8381 151.102 96.6473 150.999 96.4315C150.911 96.1992 150.874 95.9751 150.889 95.7593C150.918 95.527 150.992 95.3278 151.109 95.1618C151.241 94.9958 151.402 94.888 151.593 94.8382C151.798 94.7884 152.018 94.8299 152.253 94.9627C152.84 95.278 153.391 95.5021 153.904 95.6349C154.417 95.7511 154.923 95.8091 155.422 95.8091C156.127 95.8091 156.648 95.6764 156.985 95.4108C157.337 95.1287 157.513 94.7635 157.513 94.3153C157.513 93.9336 157.396 93.6432 157.161 93.444C156.941 93.2282 156.604 93.0705 156.149 92.971L153.948 92.4979C153.038 92.2988 152.341 91.9253 151.857 91.3776C151.388 90.8132 151.153 90.0912 151.153 89.2116C151.153 88.4149 151.344 87.7261 151.725 87.1452C152.121 86.5643 152.664 86.1162 153.354 85.8008C154.043 85.4854 154.835 85.3278 155.73 85.3278C156.376 85.3278 156.978 85.4107 157.535 85.5768C158.107 85.7261 158.657 85.9668 159.186 86.2987C159.406 86.4315 159.553 86.6058 159.626 86.8216C159.714 87.0374 159.736 87.2614 159.692 87.4938C159.648 87.7096 159.56 87.9087 159.428 88.0913C159.296 88.2573 159.127 88.3651 158.922 88.4149C158.731 88.4481 158.51 88.3983 158.261 88.2656C157.806 88 157.366 87.8092 156.941 87.6929C156.53 87.5767 156.134 87.5187 155.752 87.5187C155.033 87.5187 154.498 87.6598 154.146 87.9419C153.809 88.224 153.64 88.5975 153.64 89.0622C153.64 89.4108 153.743 89.7013 153.948 89.9336C154.153 90.1659 154.469 90.3237 154.894 90.4066L157.095 90.8797C158.048 91.0788 158.768 91.444 159.252 91.9751C159.751 92.5062 160 93.2199 160 94.1162C160 95.3278 159.582 96.2822 158.746 96.9793C157.909 97.6597 156.794 98 155.4 98Z" fill="white"/>
</g>
</g>
<defs>
<clipPath id="clip0_509_2">
<rect width="350" height="150" fill="white"/>
</clipPath>
</defs>
</svg>
