<svg width="208" height="48" viewBox="0 0 208 48" fill="none" xmlns="http://www.w3.org/2000/svg">
<path d="M23.4125 2.5V48H14.0687V2.5H23.4125ZM37.4125 2.5V9.84375H0.287498V2.5H37.4125ZM48.3662 21.5625V48H39.3662V14.1875H47.835L48.3662 21.5625ZM58.5537 13.9688L58.3975 22.3125C57.96 22.25 57.4287 22.1979 56.8037 22.1562C56.1996 22.0938 55.6475 22.0625 55.1475 22.0625C53.8767 22.0625 52.7725 22.2292 51.835 22.5625C50.9183 22.875 50.1475 23.3438 49.5225 23.9688C48.9183 24.5938 48.46 25.3542 48.1475 26.25C47.8558 27.1458 47.6892 28.1667 47.6475 29.3125L45.835 28.75C45.835 26.5625 46.0537 24.5521 46.4912 22.7188C46.9287 20.8646 47.5642 19.25 48.3975 17.875C49.2517 16.5 50.2933 15.4375 51.5225 14.6875C52.7517 13.9375 54.1579 13.5625 55.7412 13.5625C56.2412 13.5625 56.7517 13.6042 57.2725 13.6875C57.7933 13.75 58.2204 13.8438 58.5537 13.9688ZM71.6637 14.1875V48H62.6325V14.1875H71.6637ZM62.07 5.375C62.07 4.0625 62.5283 2.97917 63.445 2.125C64.3617 1.27083 65.5908 0.84375 67.1325 0.84375C68.6533 0.84375 69.8721 1.27083 70.7887 2.125C71.7262 2.97917 72.195 4.0625 72.195 5.375C72.195 6.6875 71.7262 7.77083 70.7887 8.625C69.8721 9.47917 68.6533 9.90625 67.1325 9.90625C65.5908 9.90625 64.3617 9.47917 63.445 8.625C62.5283 7.77083 62.07 6.6875 62.07 5.375ZM87.4613 21.1875V48H78.43V14.1875H86.8988L87.4613 21.1875ZM86.2113 29.9062H83.7113C83.7113 27.5521 83.9925 25.3854 84.555 23.4062C85.1383 21.4062 85.9821 19.6771 87.0863 18.2188C88.2113 16.7396 89.5967 15.5938 91.2425 14.7812C92.8883 13.9688 94.7946 13.5625 96.9613 13.5625C98.4613 13.5625 99.8363 13.7917 101.086 14.25C102.336 14.6875 103.409 15.3854 104.305 16.3438C105.222 17.2812 105.93 18.5104 106.43 20.0312C106.93 21.5312 107.18 23.3333 107.18 25.4375V48H98.18V26.4375C98.18 24.8958 97.9717 23.7083 97.555 22.875C97.1383 22.0417 96.5446 21.4583 95.7738 21.125C95.0238 20.7917 94.1175 20.625 93.055 20.625C91.8883 20.625 90.8675 20.8646 89.9925 21.3438C89.1383 21.8229 88.43 22.4896 87.8675 23.3438C87.305 24.1771 86.8883 25.1562 86.6175 26.2812C86.3467 27.4062 86.2113 28.6146 86.2113 29.9062ZM106.336 28.875L103.118 29.2812C103.118 27.0729 103.388 25.0208 103.93 23.125C104.493 21.2292 105.315 19.5625 106.399 18.125C107.503 16.6875 108.868 15.5729 110.493 14.7812C112.118 13.9688 113.993 13.5625 116.118 13.5625C117.743 13.5625 119.222 13.8021 120.555 14.2812C121.888 14.7396 123.024 15.4792 123.961 16.5C124.92 17.5 125.649 18.8125 126.149 20.4375C126.67 22.0625 126.93 24.0521 126.93 26.4062V48H117.899V26.4062C117.899 24.8438 117.69 23.6562 117.274 22.8438C116.878 22.0104 116.295 21.4375 115.524 21.125C114.774 20.7917 113.878 20.625 112.836 20.625C111.753 20.625 110.805 20.8438 109.993 21.2812C109.18 21.6979 108.503 22.2812 107.961 23.0312C107.42 23.7812 107.013 24.6562 106.743 25.6562C106.472 26.6354 106.336 27.7083 106.336 28.875ZM142.259 21.1875V48H133.228V14.1875H141.696L142.259 21.1875ZM141.009 29.9062H138.509C138.509 27.5521 138.79 25.3854 139.353 23.4062C139.936 21.4062 140.78 19.6771 141.884 18.2188C143.009 16.7396 144.394 15.5938 146.04 14.7812C147.686 13.9688 149.592 13.5625 151.759 13.5625C153.259 13.5625 154.634 13.7917 155.884 14.25C157.134 14.6875 158.207 15.3854 159.103 16.3438C160.019 17.2812 160.728 18.5104 161.228 20.0312C161.728 21.5312 161.978 23.3333 161.978 25.4375V48H152.978V26.4375C152.978 24.8958 152.769 23.7083 152.353 22.875C151.936 22.0417 151.342 21.4583 150.571 21.125C149.821 20.7917 148.915 20.625 147.853 20.625C146.686 20.625 145.665 20.8646 144.79 21.3438C143.936 21.8229 143.228 22.4896 142.665 23.3438C142.103 24.1771 141.686 25.1562 141.415 26.2812C141.144 27.4062 141.009 28.6146 141.009 29.9062ZM161.134 28.875L157.915 29.2812C157.915 27.0729 158.186 25.0208 158.728 23.125C159.29 21.2292 160.113 19.5625 161.196 18.125C162.3 16.6875 163.665 15.5729 165.29 14.7812C166.915 13.9688 168.79 13.5625 170.915 13.5625C172.54 13.5625 174.019 13.8021 175.353 14.2812C176.686 14.7396 177.821 15.4792 178.759 16.5C179.717 17.5 180.446 18.8125 180.946 20.4375C181.467 22.0625 181.728 24.0521 181.728 26.4062V48H172.696V26.4062C172.696 24.8438 172.488 23.6562 172.071 22.8438C171.675 22.0104 171.092 21.4375 170.321 21.125C169.571 20.7917 168.675 20.625 167.634 20.625C166.55 20.625 165.603 20.8438 164.79 21.2812C163.978 21.6979 163.3 22.2812 162.759 23.0312C162.217 23.7812 161.811 24.6562 161.54 25.6562C161.269 26.6354 161.134 27.7083 161.134 28.875ZM197.056 21.5625V48H188.056V14.1875H196.525L197.056 21.5625ZM207.244 13.9688L207.087 22.3125C206.65 22.25 206.119 22.1979 205.494 22.1562C204.89 22.0938 204.337 22.0625 203.837 22.0625C202.567 22.0625 201.462 22.2292 200.525 22.5625C199.608 22.875 198.837 23.3438 198.212 23.9688C197.608 24.5938 197.15 25.3542 196.837 26.25C196.546 27.1458 196.379 28.1667 196.337 29.3125L194.525 28.75C194.525 26.5625 194.744 24.5521 195.181 22.7188C195.619 20.8646 196.254 19.25 197.087 17.875C197.942 16.5 198.983 15.4375 200.212 14.6875C201.442 13.9375 202.848 13.5625 204.431 13.5625C204.931 13.5625 205.442 13.6042 205.962 13.6875C206.483 13.75 206.91 13.8438 207.244 13.9688Z" fill="#5945A9"/>
</svg>
