<svg width="212" height="47" viewBox="0 0 212 47" fill="none" xmlns="http://www.w3.org/2000/svg">
<path d="M21.3938 1.5V47H15.4563V1.5H21.3938ZM36.0188 1.5V6.4375H0.862503V1.5H36.0188ZM46.58 18.5V47H40.7988V13.1875H46.4238L46.58 18.5ZM57.1425 13L57.1113 18.375C56.6321 18.2708 56.1738 18.2083 55.7363 18.1875C55.3196 18.1458 54.8404 18.125 54.2988 18.125C52.9654 18.125 51.7883 18.3333 50.7675 18.75C49.7467 19.1667 48.8821 19.75 48.1738 20.5C47.4654 21.25 46.9029 22.1458 46.4863 23.1875C46.0904 24.2083 45.83 25.3333 45.705 26.5625L44.08 27.5C44.08 25.4583 44.2779 23.5417 44.6738 21.75C45.0904 19.9583 45.7258 18.375 46.58 17C47.4342 15.6042 48.5175 14.5208 49.83 13.75C51.1633 12.9583 52.7467 12.5625 54.58 12.5625C54.9967 12.5625 55.4758 12.6146 56.0175 12.7188C56.5592 12.8021 56.9342 12.8958 57.1425 13ZM70.0475 13.1875V47H64.235V13.1875H70.0475ZM63.7975 4.21875C63.7975 3.28125 64.0788 2.48958 64.6413 1.84375C65.2246 1.19792 66.0788 0.875 67.2038 0.875C68.3079 0.875 69.1517 1.19792 69.735 1.84375C70.3392 2.48958 70.6413 3.28125 70.6413 4.21875C70.6413 5.11458 70.3392 5.88542 69.735 6.53125C69.1517 7.15625 68.3079 7.46875 67.2038 7.46875C66.0788 7.46875 65.2246 7.15625 64.6413 6.53125C64.0788 5.88542 63.7975 5.11458 63.7975 4.21875ZM86.3587 19.9062V47H80.5462V13.1875H86.0462L86.3587 19.9062ZM85.1712 28.8125L82.4837 28.7188C82.5046 26.4062 82.8067 24.2708 83.39 22.3125C83.9733 20.3333 84.8379 18.6146 85.9837 17.1562C87.1296 15.6979 88.5567 14.5729 90.265 13.7812C91.9733 12.9688 93.9525 12.5625 96.2025 12.5625C97.7858 12.5625 99.2442 12.7917 100.577 13.25C101.911 13.6875 103.067 14.3854 104.046 15.3438C105.025 16.3021 105.786 17.5312 106.327 19.0312C106.869 20.5312 107.14 22.3438 107.14 24.4688V47H101.359V24.75C101.359 22.9792 101.057 21.5625 100.452 20.5C99.8692 19.4375 99.0358 18.6667 97.9525 18.1875C96.8692 17.6875 95.5983 17.4375 94.14 17.4375C92.4317 17.4375 91.0046 17.7396 89.8587 18.3438C88.7129 18.9479 87.7962 19.7812 87.1087 20.8438C86.4212 21.9062 85.9212 23.125 85.6087 24.5C85.3171 25.8542 85.1712 27.2917 85.1712 28.8125ZM107.077 25.625L103.202 26.8125C103.223 24.9583 103.525 23.1771 104.109 21.4688C104.713 19.7604 105.577 18.2396 106.702 16.9062C107.848 15.5729 109.255 14.5208 110.921 13.75C112.588 12.9583 114.494 12.5625 116.64 12.5625C118.452 12.5625 120.057 12.8021 121.452 13.2812C122.869 13.7604 124.057 14.5 125.015 15.5C125.994 16.4792 126.734 17.7396 127.234 19.2812C127.734 20.8229 127.984 22.6562 127.984 24.7812V47H122.171V24.7188C122.171 22.8229 121.869 21.3542 121.265 20.3125C120.682 19.25 119.848 18.5104 118.765 18.0938C117.702 17.6562 116.432 17.4375 114.952 17.4375C113.682 17.4375 112.557 17.6562 111.577 18.0938C110.598 18.5312 109.775 19.1354 109.109 19.9062C108.442 20.6562 107.932 21.5208 107.577 22.5C107.244 23.4792 107.077 24.5208 107.077 25.625ZM143.764 19.9062V47H137.951V13.1875H143.451L143.764 19.9062ZM142.576 28.8125L139.889 28.7188C139.91 26.4062 140.212 24.2708 140.795 22.3125C141.378 20.3333 142.243 18.6146 143.389 17.1562C144.535 15.6979 145.962 14.5729 147.67 13.7812C149.378 12.9688 151.357 12.5625 153.607 12.5625C155.191 12.5625 156.649 12.7917 157.982 13.25C159.316 13.6875 160.472 14.3854 161.451 15.3438C162.43 16.3021 163.191 17.5312 163.732 19.0312C164.274 20.5312 164.545 22.3438 164.545 24.4688V47H158.764V24.75C158.764 22.9792 158.462 21.5625 157.857 20.5C157.274 19.4375 156.441 18.6667 155.357 18.1875C154.274 17.6875 153.003 17.4375 151.545 17.4375C149.837 17.4375 148.41 17.7396 147.264 18.3438C146.118 18.9479 145.201 19.7812 144.514 20.8438C143.826 21.9062 143.326 23.125 143.014 24.5C142.722 25.8542 142.576 27.2917 142.576 28.8125ZM164.482 25.625L160.607 26.8125C160.628 24.9583 160.93 23.1771 161.514 21.4688C162.118 19.7604 162.982 18.2396 164.107 16.9062C165.253 15.5729 166.66 14.5208 168.326 13.75C169.993 12.9583 171.899 12.5625 174.045 12.5625C175.857 12.5625 177.462 12.8021 178.857 13.2812C180.274 13.7604 181.462 14.5 182.42 15.5C183.399 16.4792 184.139 17.7396 184.639 19.2812C185.139 20.8229 185.389 22.6562 185.389 24.7812V47H179.576V24.7188C179.576 22.8229 179.274 21.3542 178.67 20.3125C178.087 19.25 177.253 18.5104 176.17 18.0938C175.107 17.6562 173.837 17.4375 172.357 17.4375C171.087 17.4375 169.962 17.6562 168.982 18.0938C168.003 18.5312 167.18 19.1354 166.514 19.9062C165.847 20.6562 165.337 21.5208 164.982 22.5C164.649 23.4792 164.482 24.5208 164.482 25.625ZM201.2 18.5V47H195.419V13.1875H201.044L201.2 18.5ZM211.762 13L211.731 18.375C211.252 18.2708 210.794 18.2083 210.356 18.1875C209.94 18.1458 209.46 18.125 208.919 18.125C207.585 18.125 206.408 18.3333 205.387 18.75C204.367 19.1667 203.502 19.75 202.794 20.5C202.085 21.25 201.523 22.1458 201.106 23.1875C200.71 24.2083 200.45 25.3333 200.325 26.5625L198.7 27.5C198.7 25.4583 198.898 23.5417 199.294 21.75C199.71 19.9583 200.346 18.375 201.2 17C202.054 15.6042 203.137 14.5208 204.45 13.75C205.783 12.9583 207.367 12.5625 209.2 12.5625C209.617 12.5625 210.096 12.6146 210.637 12.7188C211.179 12.8021 211.554 12.8958 211.762 13Z" fill="#F1F1F1"/>
</svg>
